<svg xmlns="http://www.w3.org/2000/svg" viewBox="0 0 32.579 31.775"><defs><style>.cls-1{fill:#fff;fill-rule:evenodd;}</style></defs><title>github-icon</title><g id="Layer_2" data-name="Layer 2"><g id="Layer_1-2" data-name="Layer 1"><path class="cls-1" d="M16.288,0a16.291,16.291,0,0,0-5.147,31.747c.814.149,1.111-.354,1.111-.786,0-.386-.014-1.411-.022-2.77-4.531.984-5.487-2.184-5.487-2.184a4.32,4.32,0,0,0-1.809-2.383c-1.479-1.01.112-.99.112-.99a3.42,3.42,0,0,1,2.5,1.679,3.469,3.469,0,0,0,4.741,1.354,3.482,3.482,0,0,1,1.034-2.178C9.7,23.078,5.9,21.68,5.9,15.438a6.3,6.3,0,0,1,1.677-4.371,5.863,5.863,0,0,1,.16-4.311s1.368-.438,4.479,1.67a15.451,15.451,0,0,1,8.157,0c3.109-2.108,4.475-1.67,4.475-1.67a5.857,5.857,0,0,1,.162,4.311,6.286,6.286,0,0,1,1.674,4.371c0,6.258-3.808,7.635-7.437,8.038a3.888,3.888,0,0,1,1.106,3.017c0,2.177-.02,3.934-.02,4.468,0,.436.293.943,1.12.784A16.292,16.292,0,0,0,16.288,0Z"/></g></g></svg>